<svg height='100px' width='100px'  fill="#000000" xmlns="http://www.w3.org/2000/svg" xmlns:xlink="http://www.w3.org/1999/xlink" version="1.1" x="0px" y="0px" viewBox="0 0 100 100" enable-background="new 0 0 100 100" xml:space="preserve"><path fill="#000000" d="M83.881,33.704c-0.026-0.062-0.062-0.119-0.106-0.17l-7.275-8.23c-0.039-0.046-0.087-0.085-0.139-0.117  l-13.444-8.118c-0.072-0.044-0.154-0.072-0.239-0.082l-16.144-1.913c-0.083-0.009-0.169-0.002-0.248,0.023l-15.507,4.8  c-0.078,0.023-0.151,0.064-0.214,0.118L18.415,30.478c-0.062,0.053-0.112,0.118-0.148,0.192L11.16,45.313  c-0.037,0.076-0.058,0.158-0.06,0.243l-0.525,16.274c-0.003,0.091,0.015,0.182,0.053,0.265l4.312,9.619  c0.046,0.103,0.119,0.189,0.213,0.253l10.219,6.862c0.051,0.034,0.106,0.061,0.165,0.077l14.269,4.2  c0.044,0.013,0.089,0.021,0.134,0.023l16.351,0.956c0.012,0.001,0.023,0.001,0.035,0.001c0.049,0,0.099-0.006,0.146-0.018  l15.3-3.844c0.054-0.014,0.105-0.035,0.153-0.062L83.25,73.62c0.077-0.044,0.143-0.104,0.192-0.178l5.775-8.324  c0.065-0.096,0.104-0.207,0.106-0.322l0.562-16.274c0.003-0.085-0.012-0.17-0.044-0.248L83.881,33.704z M82.711,72.392l-4.68-7.335  l8.439-6.94L83.066,71.88L82.711,72.392z M71.397,79.083l-0.008,0.002l-6.969-8.294l13.036-5.436l-5.704,13.521L71.397,79.083z   M56.111,82.875l-7.483-10.561l15.156-1.383L56.522,82.82l-0.254,0.063L56.111,82.875z M40.079,81.938l-0.274-0.081l-6.947-12.463  l15.114,2.891l-7.757,9.661L40.079,81.938z M15.328,69.647l-2.543-13.525l6.758,7.664l-3.784,6.822L15.328,69.647z M19.292,31.306  l1.09-0.938l5.41-2.625l-9.089,11.513l1.661-6.037L19.292,31.306z M31.253,21.006l2.279-0.706l6.166-0.84l-12.704,7.242l3.219-4.801  L31.253,21.006z M46.519,16.28l4.682,0.555l3.991,0.826l-13.824,1.245l3.626-2.154L46.519,16.28z M52.575,32.807l14.317,6.475  l-12.267,7.573L52.575,32.807z M54.267,46.882l-14.598-5.111l12.546-8.946L54.267,46.882z M39.433,41.497l-1.148-12.943l13.66,4.021  L39.433,41.497z M54.134,47.218l-11.66,10.038L39.519,42.1L54.134,47.218z M67.108,39.571l0.647,15.371l-12.923-7.794L67.108,39.571  z M52.744,32.487l10.818-6.251l3.438,12.699L52.744,32.487z M52.473,32.228l-2.005-9.229l12.726,3.035L52.473,32.228z   M52.109,32.248L38.595,28.27l11.508-5.256L52.109,32.248z M39.08,41.595l-12.743-2.939l11.596-9.983L39.08,41.595z M38.931,41.93  L28.213,53.006l-2.047-14.021L38.931,41.93z M39.171,42.199l2.951,15.139l-13.697-4.032L39.171,42.199z M54.341,47.515l1.237,13.163  l-12.841-3.174L54.341,47.515z M54.7,47.489l12.866,7.759l-11.63,5.395L54.7,47.489z M67.472,39.641l11.483,9.062l-10.838,6.263  L67.472,39.641z M63.966,26.35l12.805,7.721l-9.38,4.923L63.966,26.35z M50.628,22.667l5.771-4.687l6.767,7.676L50.628,22.667z   M38.356,27.983l2.358-8.589l9.047,3.379L38.356,27.983z M26.146,38.344l0.444-10.909l11.052,1.013L26.146,38.344z M27.866,53.124  l-9.009-3.234l6.983-10.644L27.866,53.124z M27.789,53.479L19.903,63.3l-1.119-13.054L27.789,53.479z M42.039,57.688l-9.444,11.082  l-4.246-15.111L42.039,57.688z M55.489,61.026L48.338,71.78l-5.682-13.927L55.489,61.026z M67.686,55.591l-3.65,14.745l-7.963-9.359  L67.686,55.591z M79.064,49.056l-1.415,15.567l-9.405-9.315L79.064,49.056z M67.604,39.287l9.392-4.928l2.036,13.945L67.604,39.287z   M64.093,26.005l7.098-2.538l0.703,0.425l4.81,9.718L64.093,26.005z M70.794,23.228l-7.065,2.525L57.01,18.13l12.756,4.477  L70.794,23.228z M50.198,22.553l-8.8-3.287l14.449-1.302L50.198,22.553z M37.947,28.113l-10.942-1.002l13.301-7.583L37.947,28.113z   M25.776,38.593l-9.065,1.232l9.505-12.04L25.776,38.593z M25.583,38.982L18.661,49.53l-2.147-9.315L25.583,38.982z M19.536,63.235  l-6.797-7.708l5.693-5.168L19.536,63.235z M28.009,53.78l4.229,15.053l-12.187-5.144L28.009,53.78z M42.302,57.936l5.706,13.988  L32.85,69.025L42.302,57.936z M55.799,61.212l7.964,9.359L48.658,71.95L55.799,61.212z M68.049,55.62l9.426,9.337l-13.089,5.458  L68.049,55.62z M79.415,49.172l7.105,8.437l-8.509,6.998L79.415,49.172z M77.407,34.688l7.632,9.175l-5.632,4.526L77.407,34.688z   M77.514,34.253l5.184-0.126l0.111,0.126l0.768,1.877l1.404,7.101L77.514,34.253z M82.385,33.774l-5.137,0.125l-4.781-9.662  l0.556,0.336l6.989,6.517L82.385,33.774z M74.521,25.478l1.141,0.689l1.881,2.128L74.521,25.478z M62.407,18.162l5.85,3.533  l-10.85-3.808l2.227-0.054L62.407,18.162z M56.436,17.552l-1.088-0.226l1.764,0.209L56.436,17.552z M40.533,18.984l-4.908,0.668  l7.896-2.445L40.533,18.984z M26.296,27.098l-4.851,2.354l7.742-6.668L26.296,27.098z M16.131,39.978l-2.508,3.009l3.879-7.992  L16.131,39.978z M18.383,49.92l-5.58,5.064l3.485-14.146L18.383,49.92z M19.738,64.179l5.294,12.978l-9.067-6.09l-0.021-0.047  L19.738,64.179z M20.093,64.099l12.139,5.122l-6.317,8.528l-0.347-0.232L20.093,64.099z M32.491,69.476l6.82,12.236l-13.041-3.84  L32.491,69.476z M48.291,72.462l7.359,10.386l-14.994-0.877L48.291,72.462z M64.147,71.026l6.854,8.156L57.02,82.694L64.147,71.026z   M77.826,65.405l4.645,7.279L72.27,78.579L77.826,65.405z M79.531,48.75l5.619-4.517l1.383,12.832L79.531,48.75z M85.461,43.806  l-1.175-5.942l3.559,8.696L85.461,43.806z M12.295,45.723l0.674-1.39l2.964-3.555l-3.354,13.612l-0.4-5.051L12.295,45.723z   M12.306,55.501l-0.386,1.865l0.154-4.79L12.306,55.501z M12.479,56.442l2.219,11.798l-2.918-6.509l0.073-2.262L12.479,56.442z   M88.132,64.579l-4.489,6.47l3.142-12.702l1.387,5.083L88.132,64.579z M86.961,57.632l1.613-5.86l-0.361,10.446L86.961,57.632z   M86.853,56.672L85.534,44.44l2.737,3.161l0.412,1.007l-0.056,1.612L86.853,56.672z"></path></svg>