<svg xmlns="http://www.w3.org/2000/svg" width="349.5" height="78" style="max-height:500px" version="1.0" viewBox="13.5 113.25 349.5 78"><defs><clipPath id="a"><path d="M15.09 115h343.883v72.5H15.09Zm0 0"/></clipPath><clipPath id="b"><path d="M32.621 115.043h309.082a17.25 17.25 0 0 1 17.25 17.25v37.957c0 4.574-1.816 8.96-5.05 12.2a17.25 17.25 0 0 1-12.2 5.05H32.621c-4.574 0-8.96-1.816-12.195-5.05a17.27 17.27 0 0 1-5.055-12.2v-37.957c0-4.574 1.82-8.961 5.055-12.195a17.25 17.25 0 0 1 12.195-5.055m0 0"/></clipPath><clipPath id="c"><path d="M42.223 144H59v17H42.223Zm0 0"/></clipPath><clipPath id="d"><path d="M42.223 141H58v20H42.223Zm0 0"/></clipPath><clipPath id="e"><path d="M54 167h15v14.766H54Zm0 0"/></clipPath><clipPath id="f"><path d="M61 124.766h14V141H61Zm0 0"/></clipPath><clipPath id="g"><path d="M61 124.766h16V140H61Zm0 0"/></clipPath><clipPath id="h"><path d="M42.223 148H58v16H42.223Zm0 0"/></clipPath><clipPath id="i"><path d="M83 144h16.223v17H83Zm0 0"/></clipPath><clipPath id="j"><path d="M82 147h17.223v14H82Zm0 0"/></clipPath><clipPath id="k"><path d="M85 147h14.223v16H85Zm0 0"/></clipPath><clipPath id="l"><path d="M64 124.766h14V140H64Zm0 0"/></clipPath><clipPath id="m"><path d="M65 124.766h15V139H65Zm0 0"/></clipPath><clipPath id="n"><path d="M42.223 151H58v16H42.223Zm0 0"/></clipPath><clipPath id="o"><path d="M42.223 148H53v19H42.223Zm0 0"/></clipPath><clipPath id="p"><path d="M42.223 134H59v14H42.223Zm0 0"/></clipPath><clipPath id="q"><path d="M42.223 135H58v19H42.223Zm0 0"/></clipPath><clipPath id="r"><path d="M42.223 154H58v17H42.223Zm0 0"/></clipPath><clipPath id="s"><path d="M61 124.766h17V137H61Zm0 0"/></clipPath><clipPath id="t"><path d="M70 124.766h14V140H70Zm0 0"/></clipPath><clipPath id="u"><path d="M70 124.766h14V138H70Zm0 0"/></clipPath><clipPath id="v"><path d="M59 124.766h16V138H59Zm0 0"/></clipPath><clipPath id="w"><path d="M49 164h16v17.766H49Zm0 0"/></clipPath><clipPath id="x"><path d="M47 166h15v15.766H47Zm0 0"/></clipPath><clipPath id="y"><path d="M66 124.766h17V139H66Zm0 0"/></clipPath><clipPath id="z"><path d="M42.223 130H59v18H42.223Zm0 0"/></clipPath><clipPath id="A"><path d="M66 124.766h15V139H66Zm0 0"/></clipPath><clipPath id="B"><path d="M68 124.766h15V137H68Zm0 0"/></clipPath><clipPath id="C"><path d="M72 124.766h15V139H72Zm0 0"/></clipPath><clipPath id="D"><path d="M71 124.766h14V138H71Zm0 0"/></clipPath><clipPath id="E"><path d="M65 124.766h16V137H65Zm0 0"/></clipPath><clipPath id="F"><path d="M52 164h15v17.766H52Zm0 0"/></clipPath><clipPath id="G"><path d="M86 141h13.223v20H86Zm0 0"/></clipPath><clipPath id="H"><path d="M85 150h14.223v13H85Zm0 0"/></clipPath><clipPath id="I"><path d="M86 138h13.223v16H86Zm0 0"/></clipPath><clipPath id="J"><path d="M84 138h15.223v13H84Zm0 0"/></clipPath><clipPath id="K"><path d="M88 141h11.223v20H88Zm0 0"/></clipPath><clipPath id="L"><path d="M86 141h13.223v13H86Zm0 0"/></clipPath><clipPath id="M"><path d="M42.223 139H58v15H42.223Zm0 0"/></clipPath><clipPath id="N"><path d="M42.223 135H55v17H42.223Zm0 0"/></clipPath><clipPath id="O"><path d="M88 147h11.223v16H88Zm0 0"/></clipPath><clipPath id="P"><path d="M70 124.766h15V137H70Zm0 0"/></clipPath><clipPath id="Q"><path d="M42.223 158H58v13H42.223Zm0 0"/></clipPath><clipPath id="R"><path d="M42.223 158H56v16H42.223Zm0 0"/></clipPath><clipPath id="S"><path d="M42.223 154H47v2h-4.777Zm0 0"/></clipPath><clipPath id="T"><path d="M42.223 148H53v14H42.223Zm0 0"/></clipPath><clipPath id="U"><path d="M42.223 145H53v16H42.223Zm0 0"/></clipPath><clipPath id="V"><path d="M42.223 151H45v5h-2.777Zm0 0"/></clipPath><clipPath id="W"><path d="M42.223 145H51v17h-8.777Zm0 0"/></clipPath><clipPath id="X"><path d="M42.223 141H58v17H42.223Zm0 0"/></clipPath><clipPath id="Y"><path d="M68 124.766h17V137H68Zm0 0"/></clipPath><clipPath id="Z"><path d="M85 136h14.223v15H85Zm0 0"/></clipPath><clipPath id="aa"><path d="M43 161h19v20.766H43Zm0 0"/></clipPath><clipPath id="ab"><path d="M42.223 158H54v13H42.223Zm0 0"/></clipPath><clipPath id="ac"><path d="M42.223 158H56v16H42.223Zm0 0"/></clipPath><clipPath id="ad"><path d="M49 169h18v12.766H49Zm0 0"/></clipPath><clipPath id="ae"><path d="M42.223 154H54v17H42.223Zm0 0"/></clipPath><clipPath id="af"><path d="M74 124.766h15V139H74Zm0 0"/></clipPath><clipPath id="ag"><path d="M76 124.766h14V139H76Zm0 0"/></clipPath><clipPath id="ah"><path d="M42.223 139H51v19h-8.777Zm0 0"/></clipPath><clipPath id="ai"><path d="M42.223 155H45v6h-2.777Zm0 0"/></clipPath><clipPath id="aj"><path d="M42.223 149H51v18h-8.777Zm0 0"/></clipPath><clipPath id="ak"><path d="M85 134h14.223v15H85Zm0 0"/></clipPath><clipPath id="al"><path d="M77 124.766h15V139H77Zm0 0"/></clipPath><clipPath id="am"><path d="M79 124.766h15V140H79Zm0 0"/></clipPath><clipPath id="an"><path d="M72 124.766h17V137H72Zm0 0"/></clipPath><clipPath id="ao"><path d="M42.223 154H51v17h-8.777Zm0 0"/></clipPath><clipPath id="ap"><path d="M42.223 155H43v6h-.777Zm0 0"/></clipPath><clipPath id="aq"><path d="M42.223 149H49v18h-6.777Zm0 0"/></clipPath><clipPath id="ar"><path d="M42.223 160H45v1h-2.777Zm0 0"/></clipPath><clipPath id="as"><path d="M42.223 154H51v13h-8.777Zm0 0"/></clipPath><clipPath id="at"><path d="M85 134h14.223v13H85Zm0 0"/></clipPath><clipPath id="au"><path d="M88 134h11.223v15H88Zm0 0"/></clipPath><clipPath id="av"><path d="M88 147h11.223v16H88Zm0 0"/></clipPath><clipPath id="aw"><path d="M88 147h11.223v14H88Zm0 0"/></clipPath><clipPath id="ax"><path d="M88 136h11.223v15H88Zm0 0"/></clipPath><clipPath id="ay"><path d="M89 138h10.223v16H89Zm0 0"/></clipPath><clipPath id="az"><path d="M90 141h9.223v19H90Zm0 0"/></clipPath><clipPath id="aA"><path d="M42.223 160H45v5h-2.777Zm0 0"/></clipPath><clipPath id="aB"><path d="M42.223 154H51v17h-8.777Zm0 0"/></clipPath><clipPath id="aC"><path d="M85 131h14.223v16H85Zm0 0"/></clipPath><clipPath id="aD"><path d="M87 131h12.223v16H87Zm0 0"/></clipPath><clipPath id="aE"><path d="M85 131h14.223v14H85Zm0 0"/></clipPath><clipPath id="aF"><path d="M89 136h10.223v15H89Zm0 0"/></clipPath><clipPath id="aG"><path d="M88 136h11.223v13H88Zm0 0"/></clipPath><clipPath id="aH"><path d="M96 145h3.223v3H96Zm0 0"/></clipPath><clipPath id="aI"><path d="M90 139h9.223v15H90Zm0 0"/></clipPath><clipPath id="aJ"><path d="M96 147h3.223v3H96Zm0 0"/></clipPath><clipPath id="aK"><path d="M90 141h9.223v15H90Zm0 0"/></clipPath><clipPath id="aL"><path d="M98 144h1.223v7H98Zm0 0"/></clipPath><clipPath id="aM"><path d="M79 124.766h15V138H79Zm0 0"/></clipPath><clipPath id="aN"><path d="M86 129h13.223v15H86Zm0 0"/></clipPath><clipPath id="aO"><path d="M97 149h2.223v5H97Zm0 0"/></clipPath><clipPath id="aP"><path d="M91 143h8.223v17H91Zm0 0"/></clipPath><clipPath id="aQ"><path d="M95 144h4.223v2H95Zm0 0"/></clipPath><clipPath id="aR"><path d="M89 138h10.223v14H89Zm0 0"/></clipPath><clipPath id="aS"><path d="M88 134h11.223v15H88Zm0 0"/></clipPath><clipPath id="aT"><path d="M87 131h12.223v13H87Zm0 0"/></clipPath><clipPath id="aU"><path d="M86 129h13.223v15H86Zm0 0"/></clipPath><clipPath id="aV"><path d="M88 131h11.223v16H88Zm0 0"/></clipPath><clipPath id="aW"><path d="M89 131h10.223v16H89Zm0 0"/></clipPath><clipPath id="aX"><path d="M90 134h9.223v15H90Zm0 0"/></clipPath><clipPath id="aY"><path d="M97 142h2.223v4H97Zm0 0"/></clipPath><clipPath id="aZ"><path d="M91 136h8.223v16H91Zm0 0"/></clipPath><clipPath id="ba"><path d="M98 144h1.223v2H98Zm0 0"/></clipPath><clipPath id="bb"><path d="M98 149h1.223v2H98Zm0 0"/></clipPath><clipPath id="bc"><path d="M42.223 154H44v2h-1.777Zm0 0"/></clipPath><clipPath id="bd"><path d="M42.223 160H43v1h-.777Zm0 0"/></clipPath></defs><g clip-path="url(#a)"><g clip-path="url(#b)"><path fill="#082033" d="M15.371 115.043h343.602V187.5H15.37Zm0 0"/></g></g><path stroke="#f8f9fa" stroke-opacity=".5" stroke-width="1.06875" d="m69.73 150.965-3.093 2.062M66.637 153.027l5.156 3.328M69.73 150.965l2.063 5.39M73.613 151.52l-1.82 4.835M69.73 150.965l3.883.555M66.637 153.027l-1.903 5.235M71.793 156.355l-7.059 1.907M68.7 143.277l1.03 7.688M71.793 146.684l-2.063 4.28M68.7 143.277l3.093 3.407M71.793 146.684l1.82 4.836"/><path fill="none" stroke="#f8f9fa" stroke-opacity=".5" stroke-width="1.06875" d="M61.563 153.027h5.074"/><path stroke="#f8f9fa" stroke-opacity=".5" stroke-width="1.06875" d="m61.563 153.027 3.171 5.235M62.832 145.418l6.898 5.547M68.7 143.277l-5.868 2.141M71.793 156.355l7.21 5.63M71.793 156.355l-.559 5.868M79.004 161.984l-7.77.239M64.734 158.262l6.5 3.96M78.61 150.094l-4.997 1.426M73.613 151.52l4.203 3.886M78.61 150.094l-.794 5.312M77.816 155.406l-6.023.95M74.805 144.781l-1.192 6.739M74.805 144.781l3.804 5.313M74.805 144.781l-3.012 1.903M68.7 143.277l6.105 1.504M62.832 145.418l3.805 7.61M62.832 145.418l-1.27 7.61M77.816 155.406l6.422 1.586M77.816 155.406l1.188 6.578M84.238 156.992l-5.234 4.992M64.734 158.262l-2.058 6.5M71.234 162.223l-8.558 2.539M61.563 153.027l-3.961 7.61M61.563 153.027l-5.47 2.063M56.094 155.09l1.508 5.547M71.234 162.223l-5.707 5.629M62.676 164.762l2.851 3.09M64.734 158.262l-7.132 2.375M57.602 143.91l5.23 1.508M57.602 143.91l3.96 9.117M57.602 160.637l5.074 4.125M71.234 162.223l5.235 4.68M76.469 166.902l-10.942.95M57.602 160.637l-2.301 4.68M62.676 164.762l-7.375.554M73.297 140.105l1.508 4.676M77.102 141.77l-2.297 3.011M73.297 140.105l3.805 1.665M80.906 144.148l-2.297 5.946M80.906 144.148l-6.101.633M73.297 140.105l-4.598 3.172M69.016 138.758l-.317 4.52M69.016 138.758l4.28 1.347M79.004 161.984l-2.535 4.918M78.61 150.094l6.34 2.695M84.95 152.79l-7.134 2.616M84.95 152.79l-.712 4.202M81.383 165.633l-4.914 1.27M79.004 161.984l2.379 3.649M77.102 141.77l3.804 2.378M62.754 138.758l5.945 4.52"/><path fill="none" stroke="#f8f9fa" stroke-opacity=".5" stroke-width="1.06875" d="M62.754 138.758h6.262"/><path stroke="#f8f9fa" stroke-opacity=".5" stroke-width="1.06875" d="m86.934 146.766-8.325 3.328M86.934 146.766l-1.985 6.023M52.922 150.965l8.64 2.062M57.602 143.91l-4.68 7.055M62.754 138.758l.078 6.66M62.676 164.762l.472 4.914M62.676 164.762l-1.903 3.25M60.773 168.012l2.375 1.664M79.004 161.984l5.945.239M84.95 162.223l-3.567 3.41M62.754 138.758l-5.152 5.152M65.527 167.852l-2.379 1.824M65.527 167.852l-2.695 5.312M63.148 169.676l-.316 3.488M56.094 155.09l-4.52 2.297M52.922 150.965l3.172 4.125M52.922 150.965l-1.348 6.422M51.574 157.387l6.028 3.25M84.238 156.992l.711 5.23M84.238 156.992l2.535 2.38M86.773 159.371l-1.824 2.852M67.746 134.793l1.27 3.965M70.918 136.777l-1.902 1.98M67.746 134.793l3.172 1.984M70.918 136.777l2.379 3.328M75.914 137.012l1.188 4.758M75.914 137.012l-2.617 3.093M81.227 139.39l-.32 4.758M82.73 141.691l-1.824 2.457M81.227 139.39l1.503 2.301M88.121 154.375l-3.883 2.617M88.121 154.375l-1.348 4.996M81.227 139.39l-4.125 2.38M80.906 144.148l6.028 2.618M84.95 152.79l3.171 1.585M60.773 168.012l-5.156.476M55.3 165.316l5.473 2.696M55.3 165.316l.317 3.172M72.902 135.586l.395 4.52M72.902 135.586l3.012 1.426M57.602 160.637l-6.422 3.41M51.574 157.387l-.394 6.66M89.152 150.41l-4.203 2.38M89.152 150.41l-1.03 3.965M78.371 137.727l-1.27 4.043M75.914 137.012l2.457.715M78.371 137.727l2.856 1.664M77.34 133.684l1.031 4.043M77.34 133.684l-1.426 3.328M72.902 135.586l-1.984 1.191M70.047 133.762l.871 3.015M70.047 133.762l2.855 1.824M82.73 141.691l2.934 2.22M85.664 143.91l-4.758.238M85.664 143.91l1.27 2.856"/><path d="m52.922 150.965-6.262 3.094"/><g clip-path="url(#c)"><path fill="none" stroke="#f8f9fa" stroke-opacity=".5" stroke-width="1.06875" d="m52.922 150.965-6.262 3.094"/></g><path stroke="#f8f9fa" stroke-opacity=".5" stroke-width="1.06875" d="m51.895 147.637 1.027 3.328"/><path d="m51.895 147.637-5.235 6.422"/><g clip-path="url(#d)"><path fill="none" stroke="#f8f9fa" stroke-opacity=".5" stroke-width="1.06875" d="m51.895 147.637-5.235 6.422"/></g><path stroke="#f8f9fa" stroke-opacity=".5" stroke-width="1.06875" d="m57.602 143.91-5.707 3.727M58.395 137.172l4.359 1.586"/><path fill="none" stroke="#f8f9fa" stroke-opacity=".5" stroke-width="1.06875" d="M62.754 135.27v3.488"/><path stroke="#f8f9fa" stroke-opacity=".5" stroke-width="1.06875" d="m62.754 135.27-4.36 1.902M85.98 140.422l-3.25 1.27M85.98 140.422l-.316 3.488M67.746 134.793l-4.992 3.965M60.773 168.012l-2.14 2.695M63.148 169.676l-4.515 1.031M58.633 170.707l4.199 2.457M86.934 146.766l2.218 3.644M86.934 146.766l5.39 1.109M92.324 147.875l-3.172 2.535M67.746 134.793l-4.992.477M58.395 137.172l-.793 6.738M55.617 168.488l3.016 2.219M51.18 164.047l4.12 1.27"/><path d="m62.832 173.164-2.617 3.727"/><g clip-path="url(#e)"><path fill="none" stroke="#f8f9fa" stroke-opacity=".5" stroke-width="1.06875" d="m62.832 173.164-2.617 3.727"/></g><path stroke="#f8f9fa" stroke-opacity=".5" stroke-width="1.06875" d="m52.21 140.66 5.392 3.25M58.395 137.172l-6.184 3.488"/><path d="m67.984 130.512-.238 4.281"/><g clip-path="url(#f)"><path fill="none" stroke="#f8f9fa" stroke-opacity=".5" stroke-width="1.06875" d="m67.984 130.512-.238 4.281"/></g><path stroke="#f8f9fa" stroke-opacity=".5" stroke-width="1.06875" d="m70.047 133.762-2.3 1.031"/><path d="m67.984 130.512 2.063 3.25"/><g clip-path="url(#g)"><path fill="none" stroke="#f8f9fa" stroke-opacity=".5" stroke-width="1.06875" d="m67.984 130.512 2.063 3.25"/></g><path stroke="#f8f9fa" stroke-opacity=".5" stroke-width="1.06875" d="m77.34 133.684-4.438 1.902M55.3 165.316l-3.01 3.567M51.18 164.047l1.11 4.836"/><path d="m46.66 154.059 4.914 3.328"/><g clip-path="url(#h)"><path fill="none" stroke="#f8f9fa" stroke-opacity=".5" stroke-width="1.06875" d="m46.66 154.059 4.914 3.328"/></g><path stroke="#f8f9fa" stroke-opacity=".5" stroke-width="1.06875" d="m81.227 139.39 4.753 1.032M90.422 144.465l-3.488 2.3M85.664 143.91l4.758.555M82.73 136.617l-1.503 2.774M82.73 136.617l3.25 3.805M82.73 136.617l-4.359 1.11M65.05 133.207l2.696 1.586M65.05 133.207l-2.296 2.063M61.883 131.621l3.406.082M61.883 131.621l3.168 1.586M65.29 131.703l-.24 1.504"/><path d="m89.152 150.41 5.075 3.57"/><g clip-path="url(#i)"><path fill="none" stroke="#f8f9fa" stroke-opacity=".5" stroke-width="1.06875" d="m89.152 150.41 5.075 3.57"/></g><path d="m94.227 153.98-6.106.395"/><g clip-path="url(#j)"><path fill="none" stroke="#f8f9fa" stroke-opacity=".5" stroke-width="1.06875" d="m94.227 153.98-6.106.395"/></g><path stroke="#f8f9fa" stroke-opacity=".5" stroke-width="1.06875" d="m88.121 154.375 3.094 1.98"/><path d="m94.227 153.98-3.012 2.375"/><g clip-path="url(#k)"><path fill="none" stroke="#f8f9fa" stroke-opacity=".5" stroke-width="1.06875" d="m94.227 153.98-3.012 2.375"/></g><path stroke="#f8f9fa" stroke-opacity=".5" stroke-width="1.06875" d="m91.215 156.355-4.442 3.016M72.98 132.02l-2.933 1.742M72.98 132.02l-.078 3.566M72.98 132.02l4.36 1.664M80.59 134.238l-2.219 3.489M80.59 134.238l2.14 2.38M52.21 140.66l-.315 6.977M61.883 131.621l.87 3.649"/><path d="m71.234 130.672-1.187 3.09"/><g clip-path="url(#l)"><path fill="none" stroke="#f8f9fa" stroke-opacity=".5" stroke-width="1.06875" d="m71.234 130.672-1.187 3.09"/></g><path d="m71.234 130.672 1.746 1.348"/><g clip-path="url(#m)"><path fill="none" stroke="#f8f9fa" stroke-opacity=".5" stroke-width="1.06875" d="m71.234 130.672 1.746 1.348"/></g><path stroke="#f8f9fa" stroke-opacity=".5" stroke-width="1.06875" d="m91.133 140.422.32 2.219M91.133 140.422l-2.535 1.746M88.598 142.168l2.855.473M88.598 142.168l-2.934 1.742M85.98 140.422l2.618 1.746M77.34 133.684l3.25.554"/><path fill="none" stroke="#f8f9fa" stroke-opacity=".5" stroke-width="1.06875" d="M85.98 140.422h5.153"/><path stroke="#f8f9fa" stroke-opacity=".5" stroke-width="1.06875" d="m80.59 132.574-3.25 1.11"/><path fill="none" stroke="#f8f9fa" stroke-opacity=".5" stroke-width="1.06875" d="M80.59 132.574v1.664"/><path stroke="#f8f9fa" stroke-opacity=".5" stroke-width="1.06875" d="m55.617 168.488-1.742 3.567M55.617 168.488l-3.328.395M52.29 168.883l1.585 3.172M58.633 170.707l-4.758 1.348M58.078 133.527l.317 3.645M58.078 133.527l4.676 1.743M65.29 131.703l2.456 3.09"/><path d="m51.574 157.387-6.976 3.011"/><g clip-path="url(#n)"><path fill="none" stroke="#f8f9fa" stroke-opacity=".5" stroke-width="1.06875" d="m51.574 157.387-6.976 3.011"/></g><path d="m46.66 154.059-2.062 6.34"/><g clip-path="url(#o)"><path fill="none" stroke="#f8f9fa" stroke-opacity=".5" stroke-width="1.06875" d="m46.66 154.059-2.062 6.34"/></g><path d="m52.21 140.66-4.042 1.11"/><g clip-path="url(#p)"><path fill="none" stroke="#f8f9fa" stroke-opacity=".5" stroke-width="1.06875" d="m52.21 140.66-4.042 1.11"/></g><path d="m48.168 141.77 3.727 5.867"/><g clip-path="url(#q)"><path fill="none" stroke="#f8f9fa" stroke-opacity=".5" stroke-width="1.06875" d="m48.168 141.77 3.727 5.867"/></g><path d="m44.598 160.398 6.582 3.649"/><g clip-path="url(#r)"><path fill="none" stroke="#f8f9fa" stroke-opacity=".5" stroke-width="1.06875" d="m44.598 160.398 6.582 3.649"/></g><path stroke="#f8f9fa" stroke-opacity=".5" stroke-width="1.06875" d="m88.598 142.168 1.824 2.297"/><path d="m67.984 130.512 3.25.16"/><g clip-path="url(#s)"><path fill="none" stroke="#f8f9fa" stroke-opacity=".5" stroke-width="1.06875" d="m67.984 130.512 3.25.16"/></g><path d="m76.39 130.75.95 2.934"/><g clip-path="url(#t)"><path fill="none" stroke="#f8f9fa" stroke-opacity=".5" stroke-width="1.06875" d="m76.39 130.75.95 2.934"/></g><path stroke="#f8f9fa" stroke-opacity=".5" stroke-width="1.06875" d="m77.816 131.703-.476 1.98"/><path d="m76.39 130.75 1.426.953"/><g clip-path="url(#u)"><path fill="none" stroke="#f8f9fa" stroke-opacity=".5" stroke-width="1.06875" d="m76.39 130.75 1.426.953"/></g><path stroke="#f8f9fa" stroke-opacity=".5" stroke-width="1.06875" d="m90.422 144.465 1.902 3.41M52.922 136.617l5.473.555M58.078 133.527l-5.156 3.09"/><path d="m67.984 130.512-2.695 1.191"/><g clip-path="url(#v)"><path fill="none" stroke="#f8f9fa" stroke-opacity=".5" stroke-width="1.06875" d="m67.984 130.512-2.695 1.191"/></g><path stroke="#f8f9fa" stroke-opacity=".5" stroke-width="1.06875" d="m61.883 131.621-3.805 1.906"/><path d="m58.633 170.707-3.332 4.676"/><g clip-path="url(#w)"><path fill="none" stroke="#f8f9fa" stroke-opacity=".5" stroke-width="1.06875" d="m58.633 170.707-3.332 4.676"/></g><path d="m53.875 172.055 1.426 3.328"/><g clip-path="url(#x)"><path fill="none" stroke="#f8f9fa" stroke-opacity=".5" stroke-width="1.06875" d="m53.875 172.055 1.426 3.328"/></g><path d="m76.39 130.75-3.41 1.27"/><g clip-path="url(#y)"><path fill="none" stroke="#f8f9fa" stroke-opacity=".5" stroke-width="1.06875" d="m76.39 130.75-3.41 1.27"/></g><path stroke="#f8f9fa" stroke-opacity=".5" stroke-width="1.06875" d="m49.516 167.457 2.773 1.426M51.18 164.047l-1.664 3.41M52.922 136.617l-.711 4.043"/><path d="m52.922 136.617-4.754 5.153"/><g clip-path="url(#z)"><path fill="none" stroke="#f8f9fa" stroke-opacity=".5" stroke-width="1.06875" d="m52.922 136.617-4.754 5.153"/></g><path stroke="#f8f9fa" stroke-opacity=".5" stroke-width="1.06875" d="m77.816 131.703 2.774.871M83.84 132.574l-1.11 4.043M83.84 132.574l-3.25 1.664"/><path d="m74.488 129.64-1.508 2.38"/><g clip-path="url(#A)"><path fill="none" stroke="#f8f9fa" stroke-opacity=".5" stroke-width="1.06875" d="m74.488 129.64-1.508 2.38"/></g><path d="m74.488 129.64 1.903 1.11"/><g clip-path="url(#B)"><path fill="none" stroke="#f8f9fa" stroke-opacity=".5" stroke-width="1.06875" d="m74.488 129.64 1.903 1.11"/></g><path d="m78.293 130.195 2.297 2.38"/><g clip-path="url(#C)"><path fill="none" stroke="#f8f9fa" stroke-opacity=".5" stroke-width="1.06875" d="m78.293 130.195 2.297 2.38"/></g><path d="m78.293 130.195-.477 1.508"/><g clip-path="url(#D)"><path fill="none" stroke="#f8f9fa" stroke-opacity=".5" stroke-width="1.06875" d="m78.293 130.195-.477 1.508"/></g><path d="m74.488 129.64-3.254 1.032"/><g clip-path="url(#E)"><path fill="none" stroke="#f8f9fa" stroke-opacity=".5" stroke-width="1.06875" d="m74.488 129.64-3.254 1.032"/></g><path d="m58.633 170.707 1.582 6.184"/><g clip-path="url(#F)"><path fill="none" stroke="#f8f9fa" stroke-opacity=".5" stroke-width="1.06875" d="m58.633 170.707 1.582 6.184"/></g><path d="m92.324 147.875 1.903 6.105"/><g clip-path="url(#G)"><path fill="none" stroke="#f8f9fa" stroke-opacity=".5" stroke-width="1.06875" d="m92.324 147.875 1.903 6.105"/></g><path d="m91.215 156.355 3.09.239"/><g clip-path="url(#H)"><path fill="none" stroke="#f8f9fa" stroke-opacity=".5" stroke-width="1.06875" d="m91.215 156.355 3.09.239"/></g><path d="m95.496 144.547-3.172 3.328"/><g clip-path="url(#I)"><path fill="none" stroke="#f8f9fa" stroke-opacity=".5" stroke-width="1.06875" d="m95.496 144.547-3.172 3.328"/></g><path d="m90.422 144.465 5.074.082"/><g clip-path="url(#J)"><path fill="none" stroke="#f8f9fa" stroke-opacity=".5" stroke-width="1.06875" d="m90.422 144.465 5.074.082"/></g><path d="m96.605 147.32-2.378 6.66"/><g clip-path="url(#K)"><path fill="none" stroke="#f8f9fa" stroke-opacity=".5" stroke-width="1.06875" d="m96.605 147.32-2.378 6.66"/></g><path d="m96.605 147.32-4.28.555"/><g clip-path="url(#L)"><path fill="none" stroke="#f8f9fa" stroke-opacity=".5" stroke-width="1.06875" d="m96.605 147.32-4.28.555"/></g><path stroke="#f8f9fa" stroke-opacity=".5" stroke-width="1.06875" d="m91.453 142.64-1.031 1.825M88.36 136.3l2.773 4.122M88.36 136.3l-2.38 4.122"/><path d="m44.918 145.656 6.977 1.98"/><g clip-path="url(#M)"><path fill="none" stroke="#f8f9fa" stroke-opacity=".5" stroke-width="1.06875" d="m44.918 145.656 6.977 1.98"/></g><path d="m48.168 141.77-3.25 3.886"/><g clip-path="url(#N)"><path fill="none" stroke="#f8f9fa" stroke-opacity=".5" stroke-width="1.06875" d="m48.168 141.77-3.25 3.886"/></g><path d="m94.227 153.98.078 2.614"/><g clip-path="url(#O)"><path fill="none" stroke="#f8f9fa" stroke-opacity=".5" stroke-width="1.06875" d="m94.227 153.98.078 2.614"/></g><path d="m78.293 130.195-1.902.555"/><g clip-path="url(#P)"><path fill="none" stroke="#f8f9fa" stroke-opacity=".5" stroke-width="1.06875" d="m78.293 130.195-1.902.555"/></g><path d="m51.18 164.047-4.203.633"/><g clip-path="url(#Q)"><path fill="none" stroke="#f8f9fa" stroke-opacity=".5" stroke-width="1.06875" d="m51.18 164.047-4.203.633"/></g><path d="m46.977 164.68 2.539 2.777"/><g clip-path="url(#R)"><path fill="none" stroke="#f8f9fa" stroke-opacity=".5" stroke-width="1.06875" d="m46.977 164.68 2.539 2.777"/></g><g clip-path="url(#S)"><path d="m46.66 154.059-3.883 1.03"/></g><g clip-path="url(#T)"><path fill="none" stroke="#f8f9fa" stroke-opacity=".5" stroke-width="1.06875" d="m46.66 154.059-3.883 1.03"/></g><path d="m44.363 151.918 2.297 2.14"/><g clip-path="url(#U)"><path fill="none" stroke="#f8f9fa" stroke-opacity=".5" stroke-width="1.06875" d="m44.363 151.918 2.297 2.14"/></g><g clip-path="url(#V)"><path d="m44.363 151.918-1.586 3.172"/></g><g clip-path="url(#W)"><path fill="none" stroke="#f8f9fa" stroke-opacity=".5" stroke-width="1.06875" d="m44.363 151.918-1.586 3.172"/></g><path d="m51.895 147.637-7.532 4.281"/><g clip-path="url(#X)"><path fill="none" stroke="#f8f9fa" stroke-opacity=".5" stroke-width="1.06875" d="m51.895 147.637-7.532 4.281"/></g><path d="m74.488 129.64 3.805.555"/><g clip-path="url(#Y)"><path fill="none" stroke="#f8f9fa" stroke-opacity=".5" stroke-width="1.06875" d="m74.488 129.64 3.805.555"/></g><path stroke="#f8f9fa" stroke-opacity=".5" stroke-width="1.06875" d="m88.36 136.3-5.63.317"/><path fill="none" stroke="#f8f9fa" stroke-opacity=".5" stroke-width="1.06875" d="M80.59 132.574h3.25"/><path d="m91.453 142.64 4.043 1.907"/><g clip-path="url(#Z)"><path fill="none" stroke="#f8f9fa" stroke-opacity=".5" stroke-width="1.06875" d="m91.453 142.64 4.043 1.907"/></g><path d="m49.516 167.457 5.785 7.926"/><g clip-path="url(#aa)"><path fill="none" stroke="#f8f9fa" stroke-opacity=".5" stroke-width="1.06875" d="m49.516 167.457 5.785 7.926"/></g><path d="m44.363 164.207 2.614.473"/><g clip-path="url(#ab)"><path fill="none" stroke="#f8f9fa" stroke-opacity=".5" stroke-width="1.06875" d="m44.363 164.207 2.614.473"/></g><path d="m44.363 164.207 5.153 3.25"/><g clip-path="url(#ac)"><path fill="none" stroke="#f8f9fa" stroke-opacity=".5" stroke-width="1.06875" d="m44.363 164.207 5.153 3.25"/></g><path d="m55.3 175.383 4.915 1.508"/><g clip-path="url(#ad)"><path fill="none" stroke="#f8f9fa" stroke-opacity=".5" stroke-width="1.06875" d="m55.3 175.383 4.915 1.508"/></g><path d="m44.598 160.398 2.379 4.282"/><g clip-path="url(#ae)"><path fill="none" stroke="#f8f9fa" stroke-opacity=".5" stroke-width="1.06875" d="m44.598 160.398 2.379 4.282"/></g><path d="m82.73 130.512-2.14 2.062"/><g clip-path="url(#af)"><path fill="none" stroke="#f8f9fa" stroke-opacity=".5" stroke-width="1.06875" d="m82.73 130.512-2.14 2.062"/></g><path d="m82.73 130.512 1.11 2.062"/><g clip-path="url(#ag)"><path fill="none" stroke="#f8f9fa" stroke-opacity=".5" stroke-width="1.06875" d="m82.73 130.512 1.11 2.062"/></g><path stroke="#f8f9fa" stroke-opacity=".5" stroke-width="1.06875" d="m87.012 133.527-4.282 3.09M87.012 133.527l1.347 2.774"/><path d="m44.918 145.656-.555 6.262"/><g clip-path="url(#ah)"><path fill="none" stroke="#f8f9fa" stroke-opacity=".5" stroke-width="1.06875" d="m44.918 145.656-.555 6.262"/></g><g clip-path="url(#ai)"><path d="m42.777 155.09 1.82 5.308"/></g><g clip-path="url(#aj)"><path fill="none" stroke="#f8f9fa" stroke-opacity=".5" stroke-width="1.06875" d="m42.777 155.09 1.82 5.308"/></g><path stroke="#f8f9fa" stroke-opacity=".5" stroke-width="1.06875" d="m90.422 135.27-2.063 1.03M88.36 136.3l2.855 1.743M90.422 135.27l.793 2.773M91.215 138.043l-.082 2.379"/><path fill="none" stroke="#f8f9fa" stroke-opacity=".5" stroke-width="1.06875" d="M91.453 142.64h3.168"/><path d="m91.133 140.422 3.488 2.219"/><g clip-path="url(#ak)"><path fill="none" stroke="#f8f9fa" stroke-opacity=".5" stroke-width="1.06875" d="m91.133 140.422 3.488 2.219"/></g><path stroke="#f8f9fa" stroke-opacity=".5" stroke-width="1.06875" d="m83.84 132.574 3.172.953"/><path d="m85.11 130.512-1.27 2.062"/><g clip-path="url(#al)"><path fill="none" stroke="#f8f9fa" stroke-opacity=".5" stroke-width="1.06875" d="m85.11 130.512-1.27 2.062"/></g><path d="m85.11 130.512 1.902 3.015"/><g clip-path="url(#am)"><path fill="none" stroke="#f8f9fa" stroke-opacity=".5" stroke-width="1.06875" d="m85.11 130.512 1.902 3.015"/></g><path d="m78.293 130.195 4.437.317"/><g clip-path="url(#an)"><path fill="none" stroke="#f8f9fa" stroke-opacity=".5" stroke-width="1.06875" d="m78.293 130.195 4.437.317"/></g><path fill="none" stroke="#f8f9fa" stroke-opacity=".5" stroke-width="1.06875" d="M82.73 130.512h2.38"/><path d="m44.598 160.398-.235 3.809"/><g clip-path="url(#ao)"><path fill="none" stroke="#f8f9fa" stroke-opacity=".5" stroke-width="1.06875" d="m44.598 160.398-.235 3.809"/></g><g clip-path="url(#ap)"><path d="m42.777 155.09-.476 5.547"/></g><g clip-path="url(#aq)"><path fill="none" stroke="#f8f9fa" stroke-opacity=".5" stroke-width="1.06875" d="m42.777 155.09-.476 5.547"/></g><g clip-path="url(#ar)"><path d="m44.598 160.398-2.297.239"/></g><g clip-path="url(#as)"><path fill="none" stroke="#f8f9fa" stroke-opacity=".5" stroke-width="1.06875" d="m44.598 160.398-2.297.239"/></g><path d="m94.941 140.105-3.808.317"/><g clip-path="url(#at)"><path fill="none" stroke="#f8f9fa" stroke-opacity=".5" stroke-width="1.06875" d="m94.941 140.105-3.808.317"/></g><path d="m94.941 140.105-.32 2.536"/><g clip-path="url(#au)"><path fill="none" stroke="#f8f9fa" stroke-opacity=".5" stroke-width="1.06875" d="m94.941 140.105-.32 2.536"/></g><path d="m97.637 153.582-3.332 3.012"/><g clip-path="url(#av)"><path fill="none" stroke="#f8f9fa" stroke-opacity=".5" stroke-width="1.06875" d="m97.637 153.582-3.332 3.012"/></g><path d="m97.637 153.582-3.41.398"/><g clip-path="url(#aw)"><path fill="none" stroke="#f8f9fa" stroke-opacity=".5" stroke-width="1.06875" d="m97.637 153.582-3.41.398"/></g><path d="m94.621 142.64.875 1.907"/><g clip-path="url(#ax)"><path fill="none" stroke="#f8f9fa" stroke-opacity=".5" stroke-width="1.06875" d="m94.621 142.64.875 1.907"/></g><path d="m95.496 144.547 1.11 2.773"/><g clip-path="url(#ay)"><path fill="none" stroke="#f8f9fa" stroke-opacity=".5" stroke-width="1.06875" d="m95.496 144.547 1.11 2.773"/></g><path d="m96.605 147.32 1.032 6.262"/><g clip-path="url(#az)"><path fill="none" stroke="#f8f9fa" stroke-opacity=".5" stroke-width="1.06875" d="m96.605 147.32 1.032 6.262"/></g><g clip-path="url(#aA)"><path d="m42.3 160.637 2.063 3.57"/></g><g clip-path="url(#aB)"><path fill="none" stroke="#f8f9fa" stroke-opacity=".5" stroke-width="1.06875" d="m42.3 160.637 2.063 3.57"/></g><path stroke="#f8f9fa" stroke-opacity=".5" stroke-width="1.06875" d="m90.578 133.207-3.566.32M87.012 133.527l3.41 1.743M90.578 133.207l-.156 2.063"/><path d="m93.91 137.41-2.777 3.012"/><g clip-path="url(#aC)"><path fill="none" stroke="#f8f9fa" stroke-opacity=".5" stroke-width="1.06875" d="m93.91 137.41-2.777 3.012"/></g><path d="m93.91 137.41 1.031 2.695"/><g clip-path="url(#aD)"><path fill="none" stroke="#f8f9fa" stroke-opacity=".5" stroke-width="1.06875" d="m93.91 137.41 1.031 2.695"/></g><path d="m93.91 137.41-2.695.633"/><g clip-path="url(#aE)"><path fill="none" stroke="#f8f9fa" stroke-opacity=".5" stroke-width="1.06875" d="m93.91 137.41-2.695.633"/></g><path d="m97.953 142.406-2.457 2.14"/><g clip-path="url(#aF)"><path fill="none" stroke="#f8f9fa" stroke-opacity=".5" stroke-width="1.06875" d="m97.953 142.406-2.457 2.14"/></g><path d="m97.953 142.406-3.332.235"/><g clip-path="url(#aG)"><path fill="none" stroke="#f8f9fa" stroke-opacity=".5" stroke-width="1.06875" d="m97.953 142.406-3.332.235"/></g><g clip-path="url(#aH)"><path d="m99.14 145.336-2.535 1.984"/></g><g clip-path="url(#aI)"><path fill="none" stroke="#f8f9fa" stroke-opacity=".5" stroke-width="1.06875" d="m99.14 145.336-2.535 1.984"/></g><g clip-path="url(#aJ)"><path d="m96.605 147.32 2.536 2.457"/></g><g clip-path="url(#aK)"><path fill="none" stroke="#f8f9fa" stroke-opacity=".5" stroke-width="1.06875" d="m96.605 147.32 2.536 2.457"/></g><g clip-path="url(#aL)"><path fill="none" stroke="#f8f9fa" stroke-opacity=".5" stroke-width="1.06875" d="M99.14 145.336v4.441"/></g><path stroke="#f8f9fa" stroke-opacity=".5" stroke-width="1.06875" d="m87.648 131.387-.636 2.14"/><path d="m85.11 130.512 2.538.875"/><g clip-path="url(#aM)"><path fill="none" stroke="#f8f9fa" stroke-opacity=".5" stroke-width="1.06875" d="m85.11 130.512 2.538.875"/></g><path stroke="#f8f9fa" stroke-opacity=".5" stroke-width="1.06875" d="m92.879 135.27-1.664 2.773"/><path d="m92.879 135.27 1.031 2.14"/><g clip-path="url(#aN)"><path fill="none" stroke="#f8f9fa" stroke-opacity=".5" stroke-width="1.06875" d="m92.879 135.27 1.031 2.14"/></g><path fill="none" stroke="#f8f9fa" stroke-opacity=".5" stroke-width="1.06875" d="M90.422 135.27h2.457"/><path stroke="#f8f9fa" stroke-opacity=".5" stroke-width="1.06875" d="m87.648 131.387 2.93 1.82"/><g clip-path="url(#aO)"><path d="m99.14 149.777-1.503 3.805"/></g><g clip-path="url(#aP)"><path fill="none" stroke="#f8f9fa" stroke-opacity=".5" stroke-width="1.06875" d="m99.14 149.777-1.503 3.805"/></g><g clip-path="url(#aQ)"><path d="m95.496 144.547 3.645.789"/></g><g clip-path="url(#aR)"><path fill="none" stroke="#f8f9fa" stroke-opacity=".5" stroke-width="1.06875" d="m95.496 144.547 3.645.789"/></g><path fill="none" stroke="#f8f9fa" stroke-opacity=".5" stroke-width="1.06875" d="M94.941 140.105h1.82"/><path d="m96.762 140.105-2.14 2.536"/><g clip-path="url(#aS)"><path fill="none" stroke="#f8f9fa" stroke-opacity=".5" stroke-width="1.06875" d="m96.762 140.105-2.14 2.536"/></g><path stroke="#f8f9fa" stroke-opacity=".5" stroke-width="1.06875" d="m90.578 133.207 2.3 2.063"/><path d="m93.91 137.41 1.426.477"/><g clip-path="url(#aT)"><path fill="none" stroke="#f8f9fa" stroke-opacity=".5" stroke-width="1.06875" d="m93.91 137.41 1.426.477"/></g><path d="m92.879 135.27 2.457 2.617"/><g clip-path="url(#aU)"><path fill="none" stroke="#f8f9fa" stroke-opacity=".5" stroke-width="1.06875" d="m92.879 135.27 2.457 2.617"/></g><path d="m95.336 137.887-.395 2.218"/><g clip-path="url(#aV)"><path fill="none" stroke="#f8f9fa" stroke-opacity=".5" stroke-width="1.06875" d="m95.336 137.887-.395 2.218"/></g><path d="m95.336 137.887 1.426 2.218"/><g clip-path="url(#aW)"><path fill="none" stroke="#f8f9fa" stroke-opacity=".5" stroke-width="1.06875" d="m95.336 137.887 1.426 2.218"/></g><path d="m96.762 140.105 1.191 2.301"/><g clip-path="url(#aX)"><path fill="none" stroke="#f8f9fa" stroke-opacity=".5" stroke-width="1.06875" d="m96.762 140.105 1.191 2.301"/></g><g clip-path="url(#aY)"><path d="m97.953 142.406 1.188 2.93"/></g><g clip-path="url(#aZ)"><path fill="none" stroke="#f8f9fa" stroke-opacity=".5" stroke-width="1.06875" d="m97.953 142.406 1.188 2.93"/></g><path fill="#f8f9fa" d="M74.922 129.64a.33.33 0 0 1-.106.25.33.33 0 0 1-.25.106.35.35 0 0 1-.254-.105.35.35 0 0 1-.101-.25.36.36 0 0 1 .102-.254.36.36 0 0 1 .253-.102q.149 0 .25.102.105.106.106.254M78.727 130.195a.35.35 0 0 1-.106.254.33.33 0 0 1-.25.102.345.345 0 0 1-.355-.356.35.35 0 0 1 .355-.355q.149 0 .25.105a.34.34 0 0 1 .106.25M68.422 130.512a.35.35 0 0 1-.106.254.34.34 0 0 1-.25.101.34.34 0 0 1-.254-.101.35.35 0 0 1-.105-.254.34.34 0 0 1 .106-.25.34.34 0 0 1 .253-.106.34.34 0 0 1 .25.106.34.34 0 0 1 .106.25M83.168 130.512a.35.35 0 0 1-.106.254.34.34 0 0 1-.25.101.34.34 0 0 1-.253-.101.35.35 0 0 1-.106-.254.34.34 0 0 1 .106-.25.34.34 0 0 1 .254-.106.34.34 0 0 1 .25.106.34.34 0 0 1 .105.25M85.547 130.512a.35.35 0 0 1-.106.254.34.34 0 0 1-.254.101.34.34 0 0 1-.25-.101.35.35 0 0 1-.105-.254.34.34 0 0 1 .106-.25.34.34 0 0 1 .25-.106q.15 0 .253.106a.34.34 0 0 1 .106.25M71.672 130.672a.351.351 0 0 1-.355.355.345.345 0 0 1-.355-.355.33.33 0 0 1 .1-.25.35.35 0 0 1 .254-.106.34.34 0 0 1 .25.106q.105.101.106.25M76.824 130.75a.35.35 0 0 1-.105.254.35.35 0 0 1-.25.101.36.36 0 0 1-.254-.101.36.36 0 0 1-.102-.254q0-.149.102-.25a.35.35 0 0 1 .254-.105c.097 0 .183.035.25.105q.105.101.105.25M88.082 131.383a.34.34 0 0 1-.105.254.34.34 0 0 1-.25.105.354.354 0 0 1-.355-.36.35.35 0 0 1 .355-.355.34.34 0 0 1 .25.106.34.34 0 0 1 .105.25M62.316 131.621a.34.34 0 0 1-.105.254.33.33 0 0 1-.25.105.354.354 0 0 1-.355-.36.35.35 0 0 1 .355-.354c.098 0 .184.035.25.105a.34.34 0 0 1 .105.25M65.727 131.703a.33.33 0 0 1-.106.25.34.34 0 0 1-.254.106.34.34 0 0 1-.25-.106.33.33 0 0 1-.105-.25q0-.147.105-.254a.35.35 0 0 1 .25-.101.354.354 0 0 1 .36.355M78.254 131.703a.33.33 0 0 1-.106.25.34.34 0 0 1-.253.106.34.34 0 0 1-.25-.106.33.33 0 0 1-.106-.25q0-.147.106-.254a.35.35 0 0 1 .25-.101.354.354 0 0 1 .359.355M73.414 132.02c0 .097-.031.18-.102.25a.35.35 0 0 1-.253.105.34.34 0 0 1-.25-.105.34.34 0 0 1-.106-.25q0-.148.106-.254a.36.36 0 0 1 .504 0q.103.106.101.254M81.027 132.574a.351.351 0 0 1-.355.355.36.36 0 0 1-.254-.1.35.35 0 0 1-.106-.255q0-.147.106-.25a.35.35 0 0 1 .254-.105.34.34 0 0 1 .25.105q.105.103.105.25M84.277 132.574a.351.351 0 0 1-.355.355.345.345 0 0 1-.355-.355.33.33 0 0 1 .101-.25.35.35 0 0 1 .254-.105.34.34 0 0 1 .25.105q.105.103.105.25M65.488 133.207a.34.34 0 0 1-.105.254.33.33 0 0 1-.25.105.354.354 0 0 1-.355-.36.35.35 0 0 1 .355-.354c.097 0 .183.035.25.105a.34.34 0 0 1 .105.25M91.016 133.207a.34.34 0 0 1-.106.254.34.34 0 0 1-.25.105.34.34 0 0 1-.254-.105.34.34 0 0 1-.105-.254.34.34 0 0 1 .105-.25.34.34 0 0 1 .254-.105.34.34 0 0 1 .25.105.34.34 0 0 1 .106.25M58.512 133.523a.34.34 0 0 1-.106.254.33.33 0 0 1-.25.106.354.354 0 0 1-.355-.36.35.35 0 0 1 .355-.355c.098 0 .184.035.25.105a.34.34 0 0 1 .106.25M87.45 133.523a.34.34 0 0 1-.106.254.34.34 0 0 1-.254.106.34.34 0 0 1-.25-.106.34.34 0 0 1-.106-.254.34.34 0 0 1 .106-.25.34.34 0 0 1 .25-.105c.101 0 .183.035.254.105a.34.34 0 0 1 .105.25M77.777 133.684a.35.35 0 0 1-.105.254.34.34 0 0 1-.25.101.34.34 0 0 1-.254-.101.35.35 0 0 1-.106-.254.34.34 0 0 1 .106-.25.34.34 0 0 1 .254-.106.34.34 0 0 1 .25.106.34.34 0 0 1 .105.25M70.48 133.762a.354.354 0 0 1-.605.254.34.34 0 0 1-.105-.254.34.34 0 0 1 .105-.25.33.33 0 0 1 .25-.106q.148 0 .254.106.1.104.101.25M81.027 134.238a.351.351 0 0 1-.355.355.36.36 0 0 1-.254-.1.35.35 0 0 1-.106-.255c0-.097.036-.183.106-.25a.35.35 0 0 1 .254-.105.34.34 0 0 1 .25.105c.07.067.105.153.105.25M68.184 134.793a.351.351 0 0 1-.355.355.345.345 0 0 1-.355-.355.33.33 0 0 1 .1-.25.35.35 0 0 1 .254-.106.34.34 0 0 1 .25.106q.105.101.106.25M63.188 135.27a.35.35 0 0 1-.102.25.35.35 0 0 1-.254.105.33.33 0 0 1-.25-.105.33.33 0 0 1-.105-.25q0-.148.105-.254a.35.35 0 0 1 .25-.102.36.36 0 0 1 .254.102.36.36 0 0 1 .102.254M90.855 135.27a.35.35 0 0 1-.101.25.35.35 0 0 1-.254.105.33.33 0 0 1-.25-.105.33.33 0 0 1-.105-.25q0-.148.105-.254a.35.35 0 0 1 .25-.102.36.36 0 0 1 .254.102.36.36 0 0 1 .101.254M93.316 135.27a.33.33 0 0 1-.105.25.34.34 0 0 1-.254.105.34.34 0 0 1-.25-.105.33.33 0 0 1-.105-.25q0-.148.105-.254a.35.35 0 0 1 .25-.102.354.354 0 0 1 .36.356M73.336 135.586a.35.35 0 0 1-.106.254.33.33 0 0 1-.25.101.345.345 0 0 1-.355-.355.35.35 0 0 1 .355-.356q.149 0 .25.106a.34.34 0 0 1 .106.25M88.797 136.3a.34.34 0 0 1-.106.25.34.34 0 0 1-.25.106.34.34 0 0 1-.254-.105.34.34 0 0 1-.105-.25q0-.151.106-.254a.34.34 0 0 1 .253-.106.34.34 0 0 1 .25.106q.105.103.106.254M53.36 136.617a.351.351 0 0 1-.355.355.345.345 0 0 1-.355-.355.33.33 0 0 1 .1-.25.35.35 0 0 1 .254-.105.34.34 0 0 1 .25.105q.105.103.105.25M83.168 136.617a.351.351 0 0 1-.355.355.354.354 0 0 1-.254-.605.34.34 0 0 1 .254-.105.34.34 0 0 1 .25.105q.105.103.105.25M71.355 136.777a.34.34 0 0 1-.105.25.34.34 0 0 1-.254.106.34.34 0 0 1-.25-.106.34.34 0 0 1-.105-.25q0-.15.105-.254a.34.34 0 0 1 .25-.105c.102 0 .184.035.254.105q.105.104.105.254M76.348 137.012a.354.354 0 0 1-.606.254.34.34 0 0 1-.105-.254.34.34 0 0 1 .105-.25.33.33 0 0 1 .25-.106q.148 0 .254.106.101.104.102.25M58.828 137.172a.33.33 0 0 1-.105.25.33.33 0 0 1-.25.105.35.35 0 0 1-.254-.105.35.35 0 0 1-.102-.25.36.36 0 0 1 .102-.254.36.36 0 0 1 .254-.102c.097 0 .183.036.25.102q.105.106.105.254M94.344 137.41a.35.35 0 0 1-.102.25.35.35 0 0 1-.254.106.33.33 0 0 1-.25-.106.33.33 0 0 1-.105-.25q0-.147.105-.254a.35.35 0 0 1 .25-.101.36.36 0 0 1 .254.101.36.36 0 0 1 .102.254M78.809 137.727a.354.354 0 0 1-.36.355.35.35 0 0 1-.355-.355.34.34 0 0 1 .105-.25.34.34 0 0 1 .25-.106c.102 0 .184.035.254.106a.34.34 0 0 1 .106.25M95.77 137.887q.001.145-.102.25a.35.35 0 0 1-.254.105.34.34 0 0 1-.25-.105.34.34 0 0 1-.105-.25q0-.148.105-.254a.34.34 0 0 1 .25-.106q.148 0 .254.106.103.106.102.254M91.648 138.043a.35.35 0 0 1-.105.254.35.35 0 0 1-.25.101.36.36 0 0 1-.254-.101.36.36 0 0 1 0-.504.35.35 0 0 1 .254-.106q.149 0 .25.106a.34.34 0 0 1 .105.25M63.188 138.758a.35.35 0 0 1-.102.25.35.35 0 0 1-.254.105.33.33 0 0 1-.25-.105.33.33 0 0 1-.105-.25q0-.148.105-.254a.35.35 0 0 1 .25-.102.36.36 0 0 1 .254.102.36.36 0 0 1 .102.254M69.453 138.758a.33.33 0 0 1-.105.25.34.34 0 0 1-.254.105.34.34 0 0 1-.25-.105.33.33 0 0 1-.106-.25q0-.148.106-.254a.35.35 0 0 1 .25-.102.354.354 0 0 1 .36.356M81.66 139.39a.345.345 0 0 1-.355.355.33.33 0 0 1-.25-.1.35.35 0 0 1-.106-.254.34.34 0 0 1 .106-.25.33.33 0 0 1 .25-.106q.147 0 .254.106.1.104.101.25M73.73 140.105a.345.345 0 0 1-.355.356.35.35 0 0 1-.355-.356q0-.147.105-.25a.34.34 0 0 1 .25-.105q.148 0 .254.105a.33.33 0 0 1 .101.25M95.375 140.105a.35.35 0 0 1-.105.254.35.35 0 0 1-.25.102.36.36 0 0 1-.254-.102.36.36 0 0 1-.102-.254q0-.147.102-.25a.35.35 0 0 1 .254-.105c.097 0 .183.035.25.105q.105.103.105.25M97.2 140.105a.351.351 0 0 1-.355.355.36.36 0 0 1-.255-.1.36.36 0 0 1-.102-.255q0-.147.102-.25a.35.35 0 0 1 .254-.105.34.34 0 0 1 .25.105q.105.103.105.25M86.418 140.422a.351.351 0 0 1-.355.355.345.345 0 0 1-.355-.355.33.33 0 0 1 .1-.25.35.35 0 0 1 .254-.106.34.34 0 0 1 .25.106q.105.101.106.25M91.57 140.422a.35.35 0 0 1-.105.254.35.35 0 0 1-.25.101.36.36 0 0 1-.254-.101.36.36 0 0 1-.102-.254q.001-.149.102-.25a.35.35 0 0 1 .254-.106c.097 0 .183.036.25.106q.105.101.105.25M52.645 140.66a.33.33 0 0 1-.106.25.33.33 0 0 1-.25.106.35.35 0 0 1-.254-.106.35.35 0 0 1-.101-.25.36.36 0 0 1 .101-.254.36.36 0 0 1 .254-.101c.098 0 .184.035.25.101q.106.106.106.254M83.168 141.691a.351.351 0 0 1-.355.355.354.354 0 0 1-.254-.605.34.34 0 0 1 .254-.105.34.34 0 0 1 .25.105c.07.067.105.153.105.25M48.602 141.77a.36.36 0 0 1-.102.253.36.36 0 0 1-.254.102.35.35 0 0 1-.25-.102.35.35 0 0 1-.105-.253q0-.149.105-.25a.33.33 0 0 1 .25-.106q.148 0 .254.106a.35.35 0 0 1 .102.25M77.54 141.77a.351.351 0 0 1-.355.355.354.354 0 0 1-.255-.605.34.34 0 0 1 .254-.106.34.34 0 0 1 .25.106q.105.101.105.25M89.035 142.168a.34.34 0 0 1-.105.25.34.34 0 0 1-.254.105.34.34 0 0 1-.25-.105.34.34 0 0 1-.106-.25q0-.151.106-.254a.34.34 0 0 1 .25-.105q.15 0 .254.105.105.103.105.254M98.387 142.402a.354.354 0 0 1-.606.254.34.34 0 0 1-.105-.254.34.34 0 0 1 .105-.25.33.33 0 0 1 .25-.105q.148 0 .254.105.101.105.102.25M91.887 142.64a.34.34 0 0 1-.106.255.33.33 0 0 1-.25.105.354.354 0 0 1-.355-.36.35.35 0 0 1 .355-.355c.098 0 .184.035.25.106a.34.34 0 0 1 .106.25M95.059 142.64a.34.34 0 0 1-.106.255.33.33 0 0 1-.25.105.354.354 0 0 1-.355-.36.35.35 0 0 1 .355-.355c.098 0 .184.035.25.106a.34.34 0 0 1 .106.25M69.137 143.277a.34.34 0 0 1-.106.25.34.34 0 0 1-.254.106.34.34 0 0 1-.25-.106.34.34 0 0 1-.105-.25q0-.146.105-.254a.34.34 0 0 1 .25-.101c.102 0 .184.031.254.101q.105.107.106.254M58.035 143.91a.35.35 0 0 1-.105.254.35.35 0 0 1-.25.102.35.35 0 0 1-.25-.102.35.35 0 0 1-.106-.254c0-.097.035-.183.106-.25a.33.33 0 0 1 .25-.105c.097 0 .183.035.25.105.07.067.105.153.105.25M86.102 143.91a.354.354 0 0 1-.36.355.35.35 0 0 1-.355-.355c0-.097.035-.183.105-.25a.34.34 0 0 1 .25-.105c.102 0 .184.035.254.105.07.067.106.153.106.25M81.344 144.148a.33.33 0 0 1-.106.25.34.34 0 0 1-.25.106.34.34 0 0 1-.254-.106.33.33 0 0 1-.105-.25q0-.147.105-.253a.35.35 0 0 1 .254-.102.35.35 0 0 1 .356.355M90.855 144.465a.354.354 0 0 1-.605.254.34.34 0 0 1-.105-.254.34.34 0 0 1 .105-.25.33.33 0 0 1 .25-.106q.148 0 .254.106.1.104.101.25M95.93 144.543a.354.354 0 0 1-.606.254.34.34 0 0 1-.105-.254.34.34 0 0 1 .105-.25.33.33 0 0 1 .25-.106q.148 0 .254.106.101.104.102.25M75.238 144.781a.34.34 0 0 1-.105.254.33.33 0 0 1-.25.106.354.354 0 0 1-.355-.36.35.35 0 0 1 .355-.355c.097 0 .183.035.25.105a.34.34 0 0 1 .105.25m0 0"/><g clip-path="url(#ba)"><path fill="#f8f9fa" d="M99.578 145.34a.34.34 0 0 1-.105.25.34.34 0 0 1-.25.105.34.34 0 0 1-.254-.105.34.34 0 0 1-.106-.25q0-.151.106-.254a.34.34 0 0 1 .254-.106.34.34 0 0 1 .25.106q.105.103.105.254m0 0"/></g><path fill="#f8f9fa" d="M63.27 145.418a.34.34 0 0 1-.106.25.34.34 0 0 1-.25.105.34.34 0 0 1-.254-.105.34.34 0 0 1-.105-.25q0-.151.105-.254a.34.34 0 0 1 .254-.105.34.34 0 0 1 .25.105q.106.103.106.254M45.352 145.656a.34.34 0 0 1-.106.25.33.33 0 0 1-.25.106.351.351 0 0 1-.355-.355.354.354 0 0 1 .605-.255q.106.104.106.254M72.227 146.684a.34.34 0 0 1-.106.254.34.34 0 0 1-.25.105.34.34 0 0 1-.254-.106.34.34 0 0 1-.105-.253.34.34 0 0 1 .105-.25.34.34 0 0 1 .254-.106.34.34 0 0 1 .25.106.34.34 0 0 1 .106.25M87.367 146.766a.35.35 0 0 1-.355.355.33.33 0 0 1-.25-.105.34.34 0 0 1-.106-.25q0-.148.106-.254a.33.33 0 0 1 .25-.102.345.345 0 0 1 .355.356M97.04 147.32a.34.34 0 0 1-.106.25.33.33 0 0 1-.25.106.351.351 0 0 1-.355-.355.354.354 0 0 1 .605-.255q.105.104.105.254M52.328 147.637a.35.35 0 0 1-.105.254.35.35 0 0 1-.25.101.36.36 0 0 1-.254-.101.36.36 0 0 1-.102-.254q0-.149.102-.25a.35.35 0 0 1 .254-.106c.097 0 .183.035.25.106q.105.101.105.25M92.758 147.875a.35.35 0 0 1-.102.25.35.35 0 0 1-.254.105.33.33 0 0 1-.25-.105.33.33 0 0 1-.105-.25q0-.148.105-.254a.35.35 0 0 1 .25-.101.36.36 0 0 1 .254.101.36.36 0 0 1 .102.254m0 0"/><g clip-path="url(#bb)"><path fill="#f8f9fa" d="M99.578 149.777a.33.33 0 0 1-.105.25.34.34 0 0 1-.25.106.34.34 0 0 1-.254-.106.33.33 0 0 1-.106-.25q0-.146.106-.254a.35.35 0 0 1 .254-.101.35.35 0 0 1 .355.355m0 0"/></g><path fill="#f8f9fa" d="M79.043 150.094a.345.345 0 0 1-.356.355.34.34 0 0 1-.25-.101.35.35 0 0 1-.105-.254.34.34 0 0 1 .106-.25.34.34 0 0 1 .25-.106q.147 0 .253.106.103.104.102.25M89.59 150.41a.35.35 0 0 1-.106.254.34.34 0 0 1-.254.102.34.34 0 0 1-.25-.102.35.35 0 0 1-.105-.254.34.34 0 0 1 .105-.25.34.34 0 0 1 .25-.105c.102 0 .184.035.254.105a.34.34 0 0 1 .106.25M53.36 150.969a.34.34 0 0 1-.106.25.34.34 0 0 1-.25.105.35.35 0 0 1-.254-.105.34.34 0 0 1-.102-.25c0-.102.032-.184.102-.254a.35.35 0 0 1 .254-.106.34.34 0 0 1 .25.106c.07.07.105.152.105.254M70.164 150.969a.35.35 0 0 1-.355.355.34.34 0 0 1-.25-.105.34.34 0 0 1-.106-.25c0-.102.035-.184.106-.254a.34.34 0 0 1 .25-.106q.147 0 .254.106c.066.07.101.152.101.254M74.05 151.52a.34.34 0 0 1-.105.253.34.34 0 0 1-.25.106.34.34 0 0 1-.254-.106.34.34 0 0 1-.105-.253.34.34 0 0 1 .105-.25.34.34 0 0 1 .254-.106.34.34 0 0 1 .25.106.34.34 0 0 1 .106.25M44.797 151.918a.33.33 0 0 1-.106.25.34.34 0 0 1-.25.105.34.34 0 0 1-.254-.105.33.33 0 0 1-.105-.25q0-.148.105-.254a.35.35 0 0 1 .254-.101.35.35 0 0 1 .356.355M85.387 152.79a.351.351 0 0 1-.355.355.354.354 0 0 1-.255-.606.34.34 0 0 1 .254-.105.34.34 0 0 1 .25.105q.105.101.106.25M62 153.027a.35.35 0 0 1-.105.254.35.35 0 0 1-.25.102.36.36 0 0 1-.254-.102.36.36 0 0 1-.102-.254q0-.147.102-.25a.35.35 0 0 1 .254-.105c.097 0 .183.035.25.105q.105.103.105.25M67.074 153.027a.351.351 0 0 1-.355.355.354.354 0 0 1-.254-.605.34.34 0 0 1 .254-.105.34.34 0 0 1 .25.105q.105.103.105.25M98.07 153.582a.35.35 0 0 1-.101.25.35.35 0 0 1-.254.106.33.33 0 0 1-.25-.106.33.33 0 0 1-.106-.25q0-.148.106-.254a.35.35 0 0 1 .25-.101.36.36 0 0 1 .254.101.36.36 0 0 1 .101.254M94.66 153.98a.35.35 0 0 1-.355.356.33.33 0 0 1-.25-.106.34.34 0 0 1-.106-.25q0-.147.106-.253a.33.33 0 0 1 .25-.102.345.345 0 0 1 .355.355M47.098 154.059a.34.34 0 0 1-.106.25.34.34 0 0 1-.254.105.34.34 0 0 1-.25-.105.34.34 0 0 1-.105-.25q0-.148.105-.254a.35.35 0 0 1 .25-.102.354.354 0 0 1 .36.356M88.559 154.375a.351.351 0 0 1-.355.355.354.354 0 0 1-.255-.605.34.34 0 0 1 .254-.105.34.34 0 0 1 .25.105q.105.101.106.25m0 0"/><g clip-path="url(#bc)"><path fill="#f8f9fa" d="M43.21 155.09a.34.34 0 0 1-.105.25.33.33 0 0 1-.25.105.33.33 0 0 1-.25-.105.34.34 0 0 1-.105-.25q0-.151.105-.254a.33.33 0 0 1 .25-.106q.149 0 .25.106.106.103.106.254m0 0"/></g><path fill="#f8f9fa" d="M56.531 155.09a.34.34 0 0 1-.105.25.34.34 0 0 1-.254.105.34.34 0 0 1-.25-.105.34.34 0 0 1-.106-.25q0-.151.106-.254a.34.34 0 0 1 .25-.106q.15 0 .254.106.105.103.105.254M78.254 155.406a.33.33 0 0 1-.106.25.34.34 0 0 1-.253.106.34.34 0 0 1-.25-.106.33.33 0 0 1-.106-.25q0-.147.106-.254a.35.35 0 0 1 .25-.101.354.354 0 0 1 .359.355M72.227 156.36a.34.34 0 0 1-.106.25.34.34 0 0 1-.25.105.34.34 0 0 1-.254-.106.34.34 0 0 1-.105-.25c0-.101.035-.183.105-.254a.34.34 0 0 1 .254-.105.34.34 0 0 1 .25.105q.105.104.106.254M91.648 156.36a.34.34 0 0 1-.105.25.33.33 0 0 1-.25.105.351.351 0 0 1-.355-.355.354.354 0 0 1 .605-.255q.105.104.105.254M94.742 156.598a.34.34 0 0 1-.105.25.34.34 0 0 1-.25.105.34.34 0 0 1-.254-.105.34.34 0 0 1-.106-.25q0-.151.106-.254a.34.34 0 0 1 .254-.106.34.34 0 0 1 .25.106q.105.103.105.254M84.672 156.992a.33.33 0 0 1-.102.25.35.35 0 0 1-.254.106.34.34 0 0 1-.25-.106.33.33 0 0 1-.105-.25q0-.147.105-.254a.36.36 0 0 1 .504 0q.103.107.102.254M52.012 157.387a.34.34 0 0 1-.106.254.34.34 0 0 1-.25.105.34.34 0 0 1-.254-.105.34.34 0 0 1-.105-.254.34.34 0 0 1 .105-.25.34.34 0 0 1 .254-.106.34.34 0 0 1 .25.106.34.34 0 0 1 .106.25M65.172 158.262a.34.34 0 0 1-.106.25.34.34 0 0 1-.25.105.34.34 0 0 1-.254-.105.34.34 0 0 1-.105-.25q0-.151.106-.254a.34.34 0 0 1 .253-.106.34.34 0 0 1 .25.106q.105.103.106.254M87.21 159.371a.34.34 0 0 1-.105.25.34.34 0 0 1-.25.106.34.34 0 0 1-.253-.106.34.34 0 0 1-.106-.25q0-.148.106-.254a.34.34 0 0 1 .253-.101c.098 0 .18.03.25.101q.105.106.106.254M45.035 160.402a.34.34 0 0 1-.105.25.34.34 0 0 1-.25.106.34.34 0 0 1-.254-.106.34.34 0 0 1-.106-.25q0-.15.106-.254a.34.34 0 0 1 .254-.105.34.34 0 0 1 .25.105q.105.104.105.254m0 0"/><g clip-path="url(#bd)"><path fill="#f8f9fa" d="M42.734 160.637a.354.354 0 0 1-.605.254.34.34 0 0 1-.106-.254.34.34 0 0 1 .106-.25.33.33 0 0 1 .25-.106q.148 0 .254.106.1.104.101.25m0 0"/></g><path fill="#f8f9fa" d="M58.035 160.637a.34.34 0 0 1-.105.254.33.33 0 0 1-.25.105.33.33 0 0 1-.25-.105.34.34 0 0 1-.106-.254.34.34 0 0 1 .106-.25.33.33 0 0 1 .25-.106c.097 0 .183.035.25.106a.34.34 0 0 1 .105.25M79.441 161.988a.34.34 0 0 1-.105.25.34.34 0 0 1-.25.106.34.34 0 0 1-.254-.106.34.34 0 0 1-.105-.25c0-.101.035-.183.105-.254a.34.34 0 0 1 .254-.105.34.34 0 0 1 .25.105q.105.104.105.254M71.672 162.223a.351.351 0 0 1-.355.355.345.345 0 0 1-.355-.355.33.33 0 0 1 .1-.25.35.35 0 0 1 .254-.106.34.34 0 0 1 .25.106q.105.101.106.25M85.387 162.223a.351.351 0 0 1-.355.355.354.354 0 0 1-.255-.605.34.34 0 0 1 .254-.106.34.34 0 0 1 .25.106q.105.101.106.25M51.613 164.047a.345.345 0 0 1-.355.355.35.35 0 0 1-.356-.355q0-.149.106-.25a.34.34 0 0 1 .25-.106q.147 0 .254.106a.33.33 0 0 1 .101.25M44.797 164.207a.34.34 0 0 1-.106.25.34.34 0 0 1-.25.106.34.34 0 0 1-.254-.106.34.34 0 0 1-.105-.25q0-.151.105-.254a.34.34 0 0 1 .254-.105.34.34 0 0 1 .25.105q.106.103.106.254M47.414 164.68a.34.34 0 0 1-.105.254.34.34 0 0 1-.254.105.34.34 0 0 1-.25-.105.34.34 0 0 1-.106-.254.34.34 0 0 1 .106-.25.34.34 0 0 1 .25-.106q.15 0 .254.106a.34.34 0 0 1 .105.25M63.11 164.762a.35.35 0 0 1-.356.355.33.33 0 0 1-.25-.105.34.34 0 0 1-.106-.25q0-.148.106-.254a.35.35 0 0 1 .25-.102.36.36 0 0 1 .254.102.36.36 0 0 1 .101.254M55.738 165.316a.34.34 0 0 1-.105.25.34.34 0 0 1-.25.106.34.34 0 0 1-.254-.106.34.34 0 0 1-.106-.25q0-.147.106-.254a.34.34 0 0 1 .254-.101q.145-.002.25.101.105.107.105.254M81.82 165.633a.351.351 0 0 1-.355.355.354.354 0 0 1-.254-.605.34.34 0 0 1 .254-.106.34.34 0 0 1 .25.106q.105.101.105.25M76.906 166.902a.34.34 0 0 1-.105.25.34.34 0 0 1-.254.106.34.34 0 0 1-.25-.106.34.34 0 0 1-.106-.25q0-.146.106-.254a.34.34 0 0 1 .25-.101q.15-.002.254.101.105.107.105.254M49.95 167.457a.35.35 0 0 1-.356.356.33.33 0 0 1-.25-.106.34.34 0 0 1-.106-.25q0-.151.106-.254a.33.33 0 0 1 .25-.105q.147 0 .254.105.1.103.101.254M65.965 167.852a.354.354 0 0 1-.36.355.35.35 0 0 1-.355-.355q0-.149.105-.25a.34.34 0 0 1 .25-.106c.102 0 .184.035.254.106q.105.101.106.25M61.207 168.012a.33.33 0 0 1-.105.25.34.34 0 0 1-.25.105.35.35 0 0 1-.254-.105.33.33 0 0 1-.106-.25q0-.148.106-.254a.36.36 0 0 1 .504 0q.105.106.105.254M56.055 168.484a.34.34 0 0 1-.106.254.34.34 0 0 1-.25.106.34.34 0 0 1-.254-.106.34.34 0 0 1-.105-.254.34.34 0 0 1 .105-.25.34.34 0 0 1 .254-.105.34.34 0 0 1 .25.105.34.34 0 0 1 .106.25M52.727 168.883a.354.354 0 0 1-.36.355.35.35 0 0 1-.355-.355.34.34 0 0 1 .105-.25.34.34 0 0 1 .25-.106q.151 0 .254.106a.34.34 0 0 1 .106.25M63.586 169.676a.351.351 0 0 1-.355.355.354.354 0 0 1-.254-.605.34.34 0 0 1 .253-.106.34.34 0 0 1 .25.106q.106.101.106.25M59.066 170.707a.34.34 0 0 1-.105.25.34.34 0 0 1-.25.106.35.35 0 0 1-.254-.106.34.34 0 0 1-.102-.25.345.345 0 0 1 .356-.355c.098 0 .18.03.25.101q.105.106.105.254M54.309 172.055a.35.35 0 0 1-.102.25.35.35 0 0 1-.254.105.33.33 0 0 1-.25-.105.33.33 0 0 1-.105-.25q0-.148.105-.254a.35.35 0 0 1 .25-.102.36.36 0 0 1 .254.102.36.36 0 0 1 .102.254M63.27 173.164a.351.351 0 0 1-.355.355.354.354 0 0 1-.255-.605.34.34 0 0 1 .254-.105.34.34 0 0 1 .25.105q.106.101.106.25M55.738 175.383a.34.34 0 0 1-.105.254.34.34 0 0 1-.25.105.34.34 0 0 1-.254-.105.34.34 0 0 1-.106-.254.34.34 0 0 1 .106-.25.34.34 0 0 1 .254-.106.34.34 0 0 1 .25.106.34.34 0 0 1 .105.25M60.652 176.89a.34.34 0 0 1-.105.25.34.34 0 0 1-.25.106.35.35 0 0 1-.254-.105.34.34 0 0 1-.102-.25c0-.102.032-.184.102-.254a.35.35 0 0 1 .254-.106.34.34 0 0 1 .25.106c.07.07.105.152.105.254m0 0"/><path fill="#fff" d="M128.996 149.266q0 3.019-.937 5.234c-.625 1.48-1.508 2.711-2.641 3.688q-1.704 1.455-4.094 2.172-2.378.72-5.219.719-1.406-.001-3.093-.125c-1.125-.075-2.149-.223-3.063-.454v-22.484a18.4 18.4 0 0 1 3.063-.437 43 43 0 0 1 3.093-.125c1.895 0 3.633.242 5.22.718q2.389.72 4.093 2.172c1.133.969 2.016 2.2 2.64 3.688q.939 2.221.938 5.234m-12.625 8.969q4.623.001 6.89-2.36 2.281-2.355 2.282-6.609-.001-4.248-2.281-6.61-2.268-2.357-6.89-2.359-1.362.001-2.126.032-.751.033-1.047.062v17.734c.196.024.547.047 1.047.079.508.023 1.219.03 2.125.03M132.867 149.266q0-2.982.89-5.25.89-2.28 2.406-3.797a10 10 0 0 1 3.547-2.297q2.028-.78 4.313-.781 2.232.001 4.219.781a9.74 9.74 0 0 1 3.5 2.297q1.51 1.517 2.39 3.797.89 2.268.89 5.25 0 2.97-.89 5.25-.88 2.284-2.39 3.813a9.75 9.75 0 0 1-3.5 2.28q-1.986.765-4.22.766-2.284-.002-4.312-.765a10 10 0 0 1-3.547-2.281q-1.516-1.53-2.406-3.813-.89-2.28-.89-5.25m3.421 0q-.001 2.11.532 3.828c.351 1.149.859 2.125 1.515 2.938a6.8 6.8 0 0 0 2.422 1.859c.945.43 2.008.64 3.188.64 1.187 0 2.25-.21 3.187-.64a6.7 6.7 0 0 0 2.39-1.86c.657-.812 1.161-1.788 1.516-2.937q.547-1.718.547-3.828 0-2.108-.547-3.828-.532-1.732-1.515-2.938a6.74 6.74 0 0 0-2.39-1.859q-1.406-.656-3.188-.656-1.77 0-3.188.656a6.8 6.8 0 0 0-2.422 1.86c-.656.804-1.164 1.78-1.515 2.937q-.533 1.72-.532 3.828M170.24 157.657a64 64 0 0 0-.89-2.032l-1.188-2.687q-.628-1.436-1.344-2.953-.72-1.529-1.36-2.875-.644-1.357-1.187-2.422a35 35 0 0 0-.89-1.656 212 212 0 0 0-.594 8.562 630 630 0 0 0-.407 9.281h-3.171q.123-3.012.296-6.078c.114-2.039.239-4.047.375-6.015q.217-2.968.47-5.782.244-2.811.562-5.312h2.843q.905 1.469 1.938 3.484 1.031 2.002 2.062 4.188 1.044 2.189 2.016 4.39.984 2.19 1.781 4 .796-1.81 1.766-4 .984-2.201 2.016-4.39a136 136 0 0 1 2.062-4.188 53 53 0 0 1 1.953-3.484h2.844a429 429 0 0 1 1.703 23.187h-3.172q-.174-4.687-.406-9.28-.236-4.608-.594-8.563-.344.578-.906 1.656-.55 1.064-1.188 2.422-.628 1.346-1.343 2.875-.72 1.517-1.36 2.953-.626 1.44-1.187 2.687-.55 1.236-.89 2.032ZM188.975 160.875v-23.187h14.156v2.766h-10.906v6.906h9.703v2.703h-9.703v8.031h11.75v2.781ZM227.15 151.172q.546.676 1.36 1.766.826 1.08 1.688 2.406a58 58 0 0 1 1.718 2.75 29 29 0 0 1 1.47 2.781h-3.548a49 49 0 0 0-1.468-2.562 51 51 0 0 0-1.594-2.5 45 45 0 0 0-1.578-2.234 72 72 0 0 0-1.422-1.813q-.44.047-.89.047h-3.829v9.062h-3.25v-22.859a18.4 18.4 0 0 1 3.063-.437 43 43 0 0 1 3.093-.125c3.258 0 5.743.617 7.453 1.843q2.562 1.828 2.563 5.485-.002 2.296-1.234 3.937-1.22 1.643-3.594 2.453m-4.921-10.875q-2.064 0-3.172.094v8.734h2.313q1.67.001 3-.156 1.34-.17 2.265-.64a3.43 3.43 0 0 0 1.422-1.313c.332-.57.5-1.328.5-2.266q-.001-1.311-.5-2.171a3.73 3.73 0 0 0-1.36-1.375q-.844-.516-2-.704a14.6 14.6 0 0 0-2.468-.203M235.68 152.204q-.001-2.31.672-4.032.669-1.716 1.765-2.86a7.2 7.2 0 0 1 2.547-1.702 8 8 0 0 1 2.953-.578q3.515 0 5.39 2.203 1.875 2.19 1.876 6.672v.515q-.001.315-.031.594H238.93c.132 1.805.66 3.172 1.578 4.11.914.937 2.344 1.406 4.281 1.406 1.094 0 2.008-.094 2.75-.282q1.124-.279 1.703-.546l.438 2.609q-.582.298-2 .625c-.95.226-2.028.344-3.235.344q-2.268 0-3.922-.688-1.656-.685-2.734-1.89-1.066-1.201-1.594-2.86-.515-1.653-.515-3.64m11.953-1.704c.02-1.406-.336-2.554-1.063-3.453q-1.079-1.36-2.984-1.36-1.08 0-1.906.423a4.5 4.5 0 0 0-1.391 1.078q-.564.674-.875 1.547a7.7 7.7 0 0 0-.422 1.765ZM266.273 159.141c-.274.18-.793.406-1.563.688q-1.159.408-2.687.406a8.6 8.6 0 0 1-2.969-.5 6.46 6.46 0 0 1-2.438-1.547q-1.03-1.06-1.64-2.625c-.399-1.05-.594-2.3-.594-3.75 0-1.281.188-2.445.563-3.5a7.9 7.9 0 0 1 1.656-2.75q1.09-1.154 2.672-1.797 1.576-.656 3.547-.656 2.167 0 3.796.312 1.623.316 2.735.578v15.532q-.002 4.012-2.078 5.828-2.08 1.811-6.297 1.812-1.64 0-3.094-.281a19 19 0 0 1-2.531-.625l.578-2.719q.936.375 2.281.657 1.358.28 2.828.28c1.852 0 3.188-.37 4-1.109.82-.73 1.235-1.898 1.235-3.5Zm-.032-12.922a9 9 0 0 0-1.265-.25q-.784-.124-2.125-.125-2.5 0-3.86 1.64-1.359 1.642-1.359 4.36 0 1.5.375 2.578c.258.711.61 1.297 1.047 1.766q.656.705 1.5 1.047.856.328 1.766.328c.82 0 1.578-.113 2.265-.344q1.046-.358 1.656-.828ZM277.814 160.875h-3.125V143.47h3.125Zm-1.578-20.546q-.845.002-1.438-.547-.578-.562-.578-1.5 0-.936.578-1.485a2.01 2.01 0 0 1 1.438-.562q.826 0 1.406.562.593.549.594 1.485-.002.938-.594 1.5-.58.549-1.406.547M287.216 158.625c1.27 0 2.207-.164 2.813-.5q.92-.498.921-1.593-.001-1.138-.906-1.813c-.594-.445-1.586-.953-2.969-1.515a34 34 0 0 1-1.921-.813 7 7 0 0 1-1.594-.984 4.4 4.4 0 0 1-1.078-1.375q-.392-.797-.39-1.97c0-1.538.566-2.765 1.702-3.671 1.133-.906 2.688-1.36 4.656-1.36q.732 0 1.47.094.731.081 1.374.204.639.11 1.125.25.48.128.75.234l-.578 2.672q-.503-.265-1.578-.547c-.711-.195-1.563-.297-2.563-.297-.875 0-1.636.18-2.28.531-.65.344-.97.883-.97 1.61 0 .386.07.726.22 1.015q.215.44.671.797.452.346 1.11.64c.445.2.984.415 1.609.641q1.247.47 2.219.922a6.6 6.6 0 0 1 1.656 1.047q.685.598 1.047 1.453.375.863.375 2.094c0 1.605-.602 2.824-1.797 3.656q-1.783 1.236-5.094 1.235c-1.543 0-2.75-.133-3.625-.391-.867-.258-1.453-.453-1.766-.578l.563-2.688q.53.205 1.703.61c.781.261 1.82.39 3.125.39M300.997 143.47h6.594v2.609h-6.594v8.03q0 1.315.188 2.173.2.845.61 1.328.402.487 1 .687.608.204 1.405.203c.938 0 1.692-.101 2.266-.312.57-.219.969-.367 1.188-.453l.609 2.578q-.47.236-1.64.578-1.174.358-2.688.36-1.77-.001-2.922-.454c-.774-.3-1.39-.754-1.86-1.36-.468-.6-.796-1.343-.984-2.218q-.28-1.325-.281-3.078v-15.516l3.11-.546ZM317.963 143.11c.257 0 .562.015.906.047q.527.046 1.031.14.498.082.922.157.421.08.61.156l-.532 2.703a13 13 0 0 0-1.219-.313q-.862-.187-2.187-.187-.879 0-1.735.187c-.562.125-.933.211-1.109.25v14.625h-3.125v-16.671q1.108-.388 2.75-.735c1.094-.238 2.32-.36 3.688-.36M322.408 164.125q.358.154.938.313c.394.101.785.156 1.172.156q1.827 0 2.859-.828c.695-.543 1.328-1.43 1.89-2.656a96 96 0 0 1-3.937-8.516c-1.219-3-2.23-6.039-3.031-9.125h3.344q.375 1.517.89 3.25a78 78 0 0 0 1.156 3.578q.638 1.846 1.375 3.688.734 1.846 1.532 3.547a89 89 0 0 0 2.218-6.953c.625-2.301 1.211-4.672 1.766-7.11h3.219q-1.207 4.922-2.688 9.469a97 97 0 0 1-3.172 8.469c-.449 1.007-.914 1.875-1.39 2.593-.48.727-1.012 1.329-1.594 1.797a5.6 5.6 0 0 1-1.953 1.032c-.719.226-1.54.343-2.453.343q-.376-.002-.781-.062a11 11 0 0 1-.782-.125 8 8 0 0 1-.703-.188 2.5 2.5 0 0 1-.453-.172Zm0 0"/></svg>